<?xml version="1.0" encoding="utf-8"?>
<!-- Generator: Adobe Illustrator 27.1.1, SVG Export Plug-In . SVG Version: 6.00 Build 0)  -->
<svg version="1.1" id="Layer_1" xmlns="http://www.w3.org/2000/svg" xmlns:xlink="http://www.w3.org/1999/xlink" x="0px" y="0px"
	 viewBox="0 0 1024 1024" style="enable-background:new 0 0 1024 1024;" xml:space="preserve">
<style type="text/css">
	.st0{fill:#EA2F69;}
</style>
<g>
	<g>
		<path class="st0" d="M656.95,552.98c-12.15,12.28-26.67,22.18-42.45,29.31c-30.25,13.71-57.82,21.28-85.73,23.69L656.95,552.98z"
			/>
	</g>
	<g>
		<path class="st0" d="M681.5,518.52c-3.08,6.18-6.59,12.13-10.57,17.82c-0.31,0.46-0.64,0.9-0.97,1.34l-167.09,69.07
			c-9.57-0.21-19.3-0.98-29.28-2.26L681.5,518.52z"/>
	</g>
	<g>
		<path class="st0" d="M692.55,489.4c-1.71,6.2-3.74,12.26-6.15,18.21l-228.44,94.47h-0.02c-5.38-0.93-10.87-2.02-16.44-3.23
			c-2.75-0.59-5.67-1.26-8.8-2L692.55,489.4z"/>
	</g>
	<g>
		<g>
			<path class="st0" d="M697.56,464.94c-0.57,4.23-1.3,8.44-2.16,12.64c-0.13,0.64-0.26,1.3-0.41,1.93L419.46,593.46
				c-5.69-1.57-11.97-3.44-18.92-5.74L697.56,464.94z"/>
		</g>
	</g>
	<g>
		<path class="st0" d="M648.83,333.88c-0.67-0.3-1.33-0.59-1.97-0.87c0.18,0.07,0.36,0.13,0.52,0.21
			C647.88,333.43,648.36,333.65,648.83,333.88z"/>
	</g>
	<g>
		<g>
			<path class="st0" d="M648.83,333.88c-0.67-0.3-1.33-0.59-1.97-0.87c0.18,0.07,0.36,0.13,0.52,0.21
				C647.88,333.43,648.36,333.65,648.83,333.88z"/>
		</g>
		<g>
			<g>
				<path class="st0" d="M710.5,478.55c3.15-19.38,4.34-38.97,3.48-58.61c-0.31-6.61-0.84-13.21-1.67-19.56
					c-5.28-39.81-32.2-72.86-74.07-82.2c-0.92-0.21-1.84-0.41-2.77-0.59c-43.46-8.49-82.05,14.74-93.55,28.18
					c-11.36,13.3-47.49-1.67-48.28-1.98c6.92,13.2,23.07,21.92,23.07,21.92c16.77,9.85,24.23,3.52,26.82-0.33
					c2.62-3.84,10.79-12.41,10.79-12.41c28.89-24.49,62.1-26.58,73.23-25.3c1.44,0.18,3.59,0.51,6.25,1.11
					c0.71,0.16,1.41,0.34,2.1,0.52c0.62,0.15,1.25,0.33,1.85,0.51c0.61,0.15,1.21,0.33,1.8,0.52c0.48,0.15,0.93,0.31,1.41,0.46
					c0.72,0.25,1.44,0.49,2.15,0.74c0.95,0.33,1.9,0.69,2.82,1.08c0.16,0.08,0.34,0.15,0.52,0.21c0.15,0.05,0.28,0.1,0.43,0.18
					c0.64,0.28,1.3,0.57,1.97,0.87c0.44,0.2,0.89,0.39,1.33,0.61c0.43,0.2,0.87,0.41,1.3,0.62c0.48,0.25,0.95,0.48,1.43,0.72
					c7.07,3.74,12.98,8.28,17.92,12.97c6.74,6.43,12.98,14.79,17.76,23.82c0.05,0.07,0.08,0.13,0.11,0.21
					c4.25,8.03,7.3,16.59,8.51,24.79c0,0.03,0.02,0.07,0.02,0.08c1.51,10.28,2.84,24.48,2.48,40.63c-0.11,5.31-0.39,10.61-0.89,15.9
					L387.15,583.09c-4.44-1.61-9.13-3.36-14.07-5.3c-30.36-11.87-59.73-26.12-87.89-42.49c-8.38-4.87-16.66-9.92-24.82-15.16
					l-121.34-77.92c0.36-0.41,0.72-0.84,1.08-1.25C230.37,337,363.51,271.24,512.01,271.24S793.65,337,883.89,440.97
					c0.38,0.41,0.72,0.82,1.08,1.23l0.02,0.02L678.58,574.75c0.31-0.28,0.61-0.57,0.89-0.85c3.07-3.08,4.1-5.69,4.59-6.69
					c1.95-3.98,8.07-21.48,13.92-38.63c5.52-16.2,9.71-32.72,12.44-49.43c0.03-0.2,0.07-0.39,0.08-0.59V478.55z"/>
			</g>
		</g>
	</g>
	<g>
		<path class="st0" d="M511.99,687.05l-59.69,38.33c14.44,16.77,35.84,27.38,59.69,27.38c23.87,0,45.25-10.61,59.71-27.38
			L511.99,687.05z M511.99,713.28c-5.61,0-10.15-4.54-10.15-10.15c0-5.62,4.54-10.16,10.15-10.16s10.16,4.54,10.16,10.16
			C522.16,708.74,517.6,713.28,511.99,713.28z"/>
	</g>
	<g>
		<g>
			<path class="st0" d="M885.87,443.58L512.01,686.69l-0.9-0.57L138.13,443.58l0.9-1.36c0.36-0.41,0.72-0.84,1.08-1.25l145.08,94.33
				l226.82,147.49L679.46,573.9l204.42-132.93c0.38,0.41,0.72,0.82,1.08,1.23l0.02,0.02L885.87,443.58z"/>
		</g>
	</g>
</g>
</svg>
